<svg id="analytics" xmlns="http://www.w3.org/2000/svg" width="38.942" height="38.942" viewBox="0 0 38.942 38.942">
  <path id="Path_1625" data-name="Path 1625" d="M212,211.141A1.141,1.141,0,1,0,213.141,210,1.13,1.13,0,0,0,212,211.141Zm0,0" transform="translate(-195.876 -194.028)" fill="#30c6fe"/>
  <path id="Path_1626" data-name="Path 1626" d="M136.831,165.76a14.87,14.87,0,0,0,14.421-11.409h-4.358a3.417,3.417,0,0,1-6.64-1.141,3.131,3.131,0,0,1,.342-1.46l-2.3-2.3a3.287,3.287,0,0,1-2.921,0l-2.3,2.3a3.131,3.131,0,0,1,.342,1.46,3.423,3.423,0,0,1-6.845,0,3.131,3.131,0,0,1,.342-1.46l-4.449-4.449a14.64,14.64,0,0,0-.456,3.628A14.86,14.86,0,0,0,136.831,165.76Zm0,0" transform="translate(-112.721 -136.097)" fill="#30c6fe"/>
  <path id="Path_1627" data-name="Path 1627" d="M302,121.141A1.141,1.141,0,1,0,303.141,120,1.13,1.13,0,0,0,302,121.141Zm0,0" transform="translate(-279.03 -110.873)" fill="#30c6fe"/>
  <path id="Path_1628" data-name="Path 1628" d="M392,211.141A1.141,1.141,0,1,0,393.141,210,1.13,1.13,0,0,0,392,211.141Zm0,0" transform="translate(-362.185 -194.028)" fill="#30c6fe"/>
  <path id="Path_1629" data-name="Path 1629" d="M152.632,0A14.832,14.832,0,0,0,139.1,8.808l5.225,5.225a3.286,3.286,0,0,1,2.92,0l2.3-2.3a3.131,3.131,0,0,1-.342-1.46,3.423,3.423,0,1,1,6.845,0,3.13,3.13,0,0,1-.342,1.46l2.3,2.3a3.131,3.131,0,0,1,1.46-.342,3.412,3.412,0,0,1,3.217,2.282h4.723c.023-.365.046-.753.046-1.141A14.86,14.86,0,0,0,152.632,0Zm0,0" transform="translate(-128.522)" fill="#30c6fe"/>
  <path id="Path_1630" data-name="Path 1630" d="M9.279,33.423a3.417,3.417,0,0,0-6.64-1.141H0v2.282H2.639a3.412,3.412,0,0,0,3.217,2.282,3.131,3.131,0,0,0,1.46-.342l2.419,2.419a12.992,12.992,0,0,1,.844-2.4L8.937,34.883A3.131,3.131,0,0,0,9.279,33.423Zm0,0" transform="translate(0 -27.718)" fill="#30c6fe"/>
  <path id="Path_1631" data-name="Path 1631" d="M5.841,332.643l8.841-8.842a17.251,17.251,0,0,1-4.84-4.84L1,327.8a3.422,3.422,0,0,0,4.84,4.84Zm0,0" transform="translate(0 -294.701)" fill="#30c6fe"/>
</svg>
