<svg id="guarantee" xmlns="http://www.w3.org/2000/svg" width="38.483" height="38.942" viewBox="0 0 38.483 38.942">
  <path id="Path_1632" data-name="Path 1632" d="M78.141,15.683A15.684,15.684,0,1,0,62.457,31.367,15.7,15.7,0,0,0,78.141,15.683Zm-18.48,6.69-5.355-5.355L55.93,15.4l3.732,3.732L68.985,9.8l1.623,1.623Zm0,0" transform="translate(-43.216)" fill="#30c6fe"/>
  <path id="Path_1633" data-name="Path 1633" d="M4.748,345.875,0,352.8l7.019-1.309,1.309,7.02,4.446-6.484A18.069,18.069,0,0,1,4.748,345.875Zm0,0" transform="translate(0 -319.568)" fill="#30c6fe"/>
  <path id="Path_1634" data-name="Path 1634" d="M346.038,345.875a18.069,18.069,0,0,1-8.026,6.151l4.446,6.484,1.309-7.02,7.019,1.309Zm0,0" transform="translate(-312.303 -319.568)" fill="#30c6fe"/>
</svg>
