<svg xmlns="http://www.w3.org/2000/svg" xmlns:xlink="http://www.w3.org/1999/xlink" width="30.697" height="30.697" viewBox="0 0 30.697 30.697">
  <defs>
    <linearGradient id="linear-gradient" y1="0.504" x2="1" y2="0.504" gradientUnits="objectBoundingBox">
      <stop offset="0" stop-color="#00f2fe"/>
      <stop offset="0.021" stop-color="#03effe"/>
      <stop offset="0.293" stop-color="#24d2fe"/>
      <stop offset="0.554" stop-color="#3cbdfe"/>
      <stop offset="0.796" stop-color="#4ab0fe"/>
      <stop offset="1" stop-color="#4facfe"/>
    </linearGradient>
  </defs>
  <path id="wall-clock" d="M23.344,27.127a1.2,1.2,0,0,1-.462,1.632c-.377.211-.768.408-1.162.585a1.2,1.2,0,1,1-.987-2.186c.332-.15.661-.316.98-.494A1.2,1.2,0,0,1,23.344,27.127Zm4.14-4.3a1.2,1.2,0,0,0-1.678.246c-.217.292-.45.579-.691.852a1.2,1.2,0,1,0,1.8,1.588c.286-.323.561-.663.819-1.009A1.2,1.2,0,0,0,27.484,22.824ZM29.489,17.2a1.2,1.2,0,0,0-1.427.917c-.078.356-.171.713-.279,1.06a1.2,1.2,0,1,0,2.291.708c.127-.412.239-.836.331-1.258A1.2,1.2,0,0,0,29.489,17.2ZM14.15,5.756v9.1l-4.4,4.4a1.2,1.2,0,0,0,1.7,1.7L16.2,16.2a1.2,1.2,0,0,0,.351-.848V5.756a1.2,1.2,0,0,0-2.4,0ZM29.5,2.578a1.2,1.2,0,0,0-1.2,1.2v3.33A15.35,15.35,0,1,0,15.349,30.7l.03,0,.03,0c.432,0,.869-.018,1.3-.054a1.2,1.2,0,1,0-.2-2.39c-.362.03-.731.046-1.1.046h-.06A12.95,12.95,0,1,1,26.5,8.754H23.2a1.2,1.2,0,0,0,0,2.4H26.86a3.814,3.814,0,0,0,2-.561,1.2,1.2,0,0,0,.108-.069A3.836,3.836,0,0,0,30.7,7.315V3.777A1.2,1.2,0,0,0,29.5,2.578Z" fill="url(#linear-gradient)"/>
</svg>
